<svg id="Layer_1" data-name="Layer 1" xmlns="http://www.w3.org/2000/svg" xmlns:xlink="http://www.w3.org/1999/xlink" viewBox="0 0 434 145"><defs><style>.cls-1{fill:url(#linear-gradient);}.cls-2{fill:url(#linear-gradient-2);}.cls-3{fill:url(#linear-gradient-3);}.cls-4{fill:url(#linear-gradient-4);}.cls-5{fill:url(#linear-gradient-5);}.cls-6{fill:url(#linear-gradient-6);}.cls-7{fill:url(#linear-gradient-7);}.cls-8{fill:url(#linear-gradient-8);}.cls-9{fill:url(#linear-gradient-9);}.cls-10{fill:url(#linear-gradient-10);}</style><linearGradient id="linear-gradient" x1="93.26" y1="-5.26" x2="93.26" y2="124.51" gradientUnits="userSpaceOnUse"><stop offset="0" stop-color="#8e2dfa"/><stop offset="1" stop-color="#5921e5"/></linearGradient><linearGradient id="linear-gradient-2" x1="72.19" y1="-5.26" x2="72.19" y2="124.51" xlink:href="#linear-gradient"/><linearGradient id="linear-gradient-3" x1="51.12" y1="-5.26" x2="51.12" y2="124.51" xlink:href="#linear-gradient"/><linearGradient id="linear-gradient-4" x1="72.19" y1="-5.26" x2="72.19" y2="124.51" xlink:href="#linear-gradient"/><linearGradient id="linear-gradient-5" x1="199.85" y1="-5.26" x2="199.85" y2="124.51" xlink:href="#linear-gradient"/><linearGradient id="linear-gradient-6" x1="252.19" y1="-5.26" x2="252.19" y2="124.51" xlink:href="#linear-gradient"/><linearGradient id="linear-gradient-7" x1="299.85" y1="-5.26" x2="299.85" y2="124.51" xlink:href="#linear-gradient"/><linearGradient id="linear-gradient-8" x1="332.93" y1="-5.26" x2="332.93" y2="124.51" xlink:href="#linear-gradient"/><linearGradient id="linear-gradient-9" x1="367.07" y1="-5.26" x2="367.07" y2="124.51" xlink:href="#linear-gradient"/><linearGradient id="linear-gradient-10" x1="412.67" y1="-5.26" x2="412.67" y2="124.51" xlink:href="#linear-gradient"/></defs><title>unplug-full-purple-color</title><path class="cls-1" d="M93.26,33.06a4.88,4.88,0,0,0-4.88,4.88V50h9.76V37.94A4.89,4.89,0,0,0,93.26,33.06Z"/><path class="cls-2" d="M56,74.22A16.36,16.36,0,0,0,71.31,90.67a16.2,16.2,0,0,0,17-16.18l.06-9H56Z"/><path class="cls-3" d="M56,38a4.88,4.88,0,1,0-9.75,0V50H56Z"/><path class="cls-4" d="M144,1H.38V145.15l56-25.46H144ZM128.79,16.21v88.28H53.06l-37.47,17V16.21Z"/><path class="cls-5" d="M224.3,62.68c0,8.44-1.16,14.56-4.34,19.06-4,5.65-11.16,9-20.15,9s-16.27-3.33-20.22-9.14c-3-4.49-4.18-10.61-4.18-18.6V33.77h12.32V62.52c0,6,.54,9.61,2.17,12.24s4.95,4.88,10.22,4.88c4.89,0,8.06-1.78,9.92-4.64,1.71-2.64,2.4-6.51,2.4-12.4V33.77H224.3Z"/><path class="cls-6" d="M233.75,51.75h11.63v3.49l.15.07a18.68,18.68,0,0,1,11.78-4.41,13.71,13.71,0,0,1,10,3.87c2.33,2.48,3.34,5.81,3.34,11.31V89.87H258.86V68c0-2.87-.39-4.26-1.32-5.34a5,5,0,0,0-4-1.63,13.63,13.63,0,0,0-8,3.17V89.87H233.75Z"/><path class="cls-7" d="M292,106.92H280.24V51.75h11.55v1.94l.15.07a16.53,16.53,0,0,1,9.46-2.86c9.76,0,18.05,7.75,18.05,19.6,0,12.24-8.75,20.22-19.91,20.22a17.19,17.19,0,0,1-7.36-1.47l-.16.08Zm6.05-25.73c6.12,0,9.53-4.41,9.53-10.07s-3.41-10.38-9.22-10.38A11,11,0,0,0,292,62.83V79.72A13.27,13.27,0,0,0,298.07,81.19Z"/><path class="cls-8" d="M327.05,30.67h11.77v59.2H327.05Z"/><path class="cls-9" d="M373.77,86.23a17.13,17.13,0,0,1-11.62,4.49,13.42,13.42,0,0,1-9.92-3.79c-2.48-2.56-3.64-6.05-3.64-11.7V51.75h11.78v21.7c0,2.78.46,4.41,1.47,5.5a5.42,5.42,0,0,0,4.18,1.7,11.94,11.94,0,0,0,7.75-3.41V51.75h11.78V89.87H373.92V86.31Z"/><path class="cls-10" d="M398.57,93.82a24.11,24.11,0,0,0,12.32,3.88c5.73,0,9.29-3,9.29-8.6V87l-.15-.08a16.11,16.11,0,0,1-8.91,2.55c-9.22,0-17.75-7.12-17.75-18.67,0-11.16,8-19.91,19.84-19.91a21.55,21.55,0,0,1,9.53,2.17L432,51.44V89.1c0,12-8.21,18.67-20.38,18.67a31,31,0,0,1-13-2.79Zm21.61-31.53a13.27,13.27,0,0,0-5.81-1.4c-6.12,0-9.06,4.5-9.06,9.46,0,5.57,3.41,9.53,8.91,9.53a11.79,11.79,0,0,0,6-1.63Z"/></svg>