<svg id="Layer_1" data-name="Layer 1" xmlns="http://www.w3.org/2000/svg" xmlns:xlink="http://www.w3.org/1999/xlink" viewBox="0 0 175 175"><defs><style>.cls-1{fill:url(#linear-gradient);}.cls-2{fill:#fff;}</style><linearGradient id="linear-gradient" x1="89.2" y1="-10" x2="82.8" y2="187" gradientUnits="userSpaceOnUse"><stop offset="0" stop-color="#8e2dfa"/><stop offset="1" stop-color="#5921e5"/></linearGradient></defs><title>unplug-icon</title><rect class="cls-1" x="-9.5" y="-7" width="191" height="191"/><path class="cls-2" d="M106.87,50.73a4.49,4.49,0,0,0-4.49,4.48V66.33h9V55.21A4.49,4.49,0,0,0,106.87,50.73Z"/><path class="cls-2" d="M72.59,88.56a15,15,0,0,0,14.1,15.11A14.89,14.89,0,0,0,102.36,88.8l.06-8.27H72.59Z"/><path class="cls-2" d="M72.62,55.23a4.49,4.49,0,0,0-9,0V66.31h9Z"/><path class="cls-2" d="M153.5,21.26h-132V153.74L73,130.34H153.5Zm-14,14v81.13H69.92L35.48,132V35.24Z"/></svg>