<svg id="Layer_1" data-name="Layer 1" xmlns="http://www.w3.org/2000/svg" xmlns:xlink="http://www.w3.org/1999/xlink" viewBox="0 0 434 145"><defs><style>.cls-1{fill:url(#linear-gradient);}.cls-2{fill:url(#linear-gradient-2);}.cls-3{fill:url(#linear-gradient-3);}.cls-4{fill:url(#linear-gradient-4);}.cls-5{font-size:77.49px;fill:#fff;font-family:AzoSans-Bold, Azo Sans;font-weight:700;}</style><linearGradient id="linear-gradient" x1="94.27" y1="12.95" x2="92.4" y2="70.41" gradientUnits="userSpaceOnUse"><stop offset="0" stop-color="#8e2dfa"/><stop offset="1" stop-color="#5921e5"/></linearGradient><linearGradient id="linear-gradient-2" x1="74.04" y1="12.29" x2="72.17" y2="69.75" xlink:href="#linear-gradient"/><linearGradient id="linear-gradient-3" x1="52.17" y1="11.58" x2="50.3" y2="69.04" xlink:href="#linear-gradient"/><linearGradient id="linear-gradient-4" x1="73.76" y1="12.04" x2="71.89" y2="69.6" xlink:href="#linear-gradient"/></defs><title>unplug-full-white-text</title><path class="cls-1" d="M93.26,33.06a4.88,4.88,0,0,0-4.88,4.88V50h9.76V37.94A4.89,4.89,0,0,0,93.26,33.06Z"/><path class="cls-2" d="M56,74.22A16.36,16.36,0,0,0,71.31,90.67a16.2,16.2,0,0,0,17-16.18l.06-9H56Z"/><path class="cls-3" d="M56,38a4.88,4.88,0,1,0-9.75,0V50H56Z"/><path class="cls-4" d="M144,1H.38V145.15l56-25.46H144ZM128.79,16.21v88.28H53.06l-37.47,17V16.21Z"/><text class="cls-5" transform="translate(170.83 89.87)">Unplug</text></svg>