<svg id="Layer_1" data-name="Layer 1" xmlns="http://www.w3.org/2000/svg" viewBox="0 0 434 145"><defs><style>.cls-1,.cls-2{fill:#fff;}.cls-2{font-size:77.49px;font-family:AzoSans-Bold, Azo Sans;font-weight:700;}</style></defs><title>unplug-full-white-color</title><path class="cls-1" d="M93.26,33.06a4.88,4.88,0,0,0-4.88,4.88V50h9.76V37.94A4.89,4.89,0,0,0,93.26,33.06Z"/><path class="cls-1" d="M56,74.22A16.36,16.36,0,0,0,71.31,90.67a16.2,16.2,0,0,0,17-16.18l.06-9H56Z"/><path class="cls-1" d="M56,38a4.88,4.88,0,1,0-9.75,0V50H56Z"/><path class="cls-1" d="M144,1H.38V145.15l56-25.46H144ZM128.79,16.21v88.28H53.06l-37.47,17V16.21Z"/><text class="cls-2" transform="translate(170.83 89.87)">Unplug</text></svg>